<svg width="582" height="1127" xmlns="http://www.w3.org/2000/svg" xmlns:xlink="http://www.w3.org/1999/xlink" xml:space="preserve" overflow="hidden"><g transform="translate(-323 0)"><path d="M271.782 85.9576 295.427 85.9576 295.427 291.625 271.782 291.625Z" stroke="#020202" stroke-width="2.31817" stroke-linecap="round" stroke-linejoin="round" fill="#020202" transform="matrix(1.00004 0 0 1 323.846 0)"/><path d="M144.932 291.533 424.317 291.533 424.317 1125.79 144.932 1125.79Z" stroke="#020202" stroke-width="2.31817" stroke-linecap="round" stroke-linejoin="round" fill="#020202" transform="matrix(1.00004 0 0 1 323.846 0)"/><path d="M360.614 291.533 230.889 291.533" stroke="#020202" stroke-width="2.31817" stroke-linecap="round" stroke-linejoin="round" fill="none" transform="matrix(1.00004 0 0 1 323.846 0)"/><path d="M423.019 847.707 144.932 847.707" stroke="#020202" stroke-width="2.31817" stroke-linecap="round" stroke-linejoin="round" fill="none" transform="matrix(1.00004 0 0 1 323.846 0)"/><path d="M390.379 291.533 360.614 291.533" stroke="#020202" stroke-width="2.31817" stroke-linecap="round" stroke-linejoin="round" fill="none" transform="matrix(1.00004 0 0 1 323.846 0)"/><path d="M144.932 291.533 423.019 291.533" stroke="#020202" stroke-width="2.31817" stroke-linecap="round" stroke-linejoin="round" fill="none" transform="matrix(1.00004 0 0 1 323.846 0)"/><path d="M423.019 291.533 423.019 569.62" stroke="#020202" stroke-width="2.31817" stroke-linecap="round" stroke-linejoin="round" fill="none" transform="matrix(1.00004 0 0 1 323.846 0)"/><path d="M144.932 291.533 144.932 569.62" stroke="#020202" stroke-width="2.31817" stroke-linecap="round" stroke-linejoin="round" fill="none" transform="matrix(1.00004 0 0 1 323.846 0)"/><path d="M144.932 569.62 423.019 569.62" stroke="#020202" stroke-width="2.31817" stroke-linecap="round" stroke-linejoin="round" fill="none" transform="matrix(1.00004 0 0 1 323.846 0)"/><path d="M423.019 569.62 423.019 847.707" stroke="#020202" stroke-width="2.31817" stroke-linecap="round" stroke-linejoin="round" fill="none" transform="matrix(1.00004 0 0 1 323.846 0)"/><path d="M144.932 569.62 144.932 847.707" stroke="#020202" stroke-width="2.31817" stroke-linecap="round" stroke-linejoin="round" fill="none" transform="matrix(1.00004 0 0 1 323.846 0)"/><path d="M423.019 847.707 423.019 1125.79" stroke="#020202" stroke-width="2.31817" stroke-linecap="round" stroke-linejoin="round" fill="none" transform="matrix(1.00004 0 0 1 323.846 0)"/><path d="M144.932 847.707 144.932 1125.79" stroke="#020202" stroke-width="2.31817" stroke-linecap="round" stroke-linejoin="round" fill="none" transform="matrix(1.00004 0 0 1 323.846 0)"/><path d="M405.865 985.036C405.865 1052.38 351.272 1106.97 283.929 1106.97 216.586 1106.97 161.994 1052.38 161.994 985.036 161.994 917.692 216.586 863.1 283.929 863.1 351.272 863.1 405.865 917.692 405.865 985.036Z" stroke="#020202" stroke-width="2.31817" stroke-linecap="round" stroke-linejoin="round" fill="none" transform="matrix(1.00004 0 0 1 323.846 0)"/><path d="M395.201 985.036C395.201 1046.49 345.383 1096.31 283.929 1096.31 222.475 1096.31 172.657 1046.49 172.657 985.036 172.657 923.582 222.475 873.764 283.929 873.764 345.383 873.764 395.201 923.582 395.201 985.036Z" stroke="#020202" stroke-width="2.31817" stroke-linecap="round" stroke-linejoin="round" fill="none" transform="matrix(1.00004 0 0 1 323.846 0)"/><path d="M405.865 706.948C405.865 774.291 351.272 828.884 283.929 828.884 216.586 828.884 161.994 774.291 161.994 706.948 161.994 639.605 216.586 585.013 283.929 585.013 351.272 585.013 405.865 639.605 405.865 706.948Z" stroke="#020202" stroke-width="2.31817" stroke-linecap="round" stroke-linejoin="round" fill="none" transform="matrix(1.00004 0 0 1 323.846 0)"/><path d="M395.201 706.948C395.201 768.402 345.383 818.22 283.929 818.22 222.475 818.22 172.657 768.402 172.657 706.948 172.657 645.494 222.475 595.676 283.929 595.676 345.383 595.676 395.201 645.494 395.201 706.948Z" stroke="#020202" stroke-width="2.31817" stroke-linecap="round" stroke-linejoin="round" fill="none" transform="matrix(1.00004 0 0 1 323.846 0)"/><path d="M405.865 428.861C405.865 496.204 351.272 550.797 283.929 550.797 216.586 550.797 161.994 496.204 161.994 428.861 161.994 361.518 216.586 306.925 283.929 306.925 351.272 306.925 405.865 361.518 405.865 428.861Z" stroke="#020202" stroke-width="2.31817" stroke-linecap="round" stroke-linejoin="round" fill="none" transform="matrix(1.00004 0 0 1 323.846 0)"/><path d="M395.201 428.861C395.201 490.315 345.383 540.133 283.929 540.133 222.475 540.133 172.657 490.315 172.657 428.861 172.657 367.407 222.475 317.589 283.929 317.589 345.383 317.589 395.201 367.407 395.201 428.861Z" stroke="#020202" stroke-width="2.31817" stroke-linecap="round" stroke-linejoin="round" fill="none" transform="matrix(1.00004 0 0 1 323.846 0)"/><path d="M198.713 398.447C202.144 391.492 223.1 350.6 266.682 341.42 279.664 338.731 291.254 339.472 300.249 341.049" stroke="#020202" stroke-width="2.31817" stroke-linecap="round" stroke-linejoin="round" fill="none" transform="matrix(1.00004 0 0 1 323.846 0)"/><path d="M198.713 680.707C202.144 673.752 223.1 632.86 266.682 623.68 279.664 620.991 291.254 621.732 300.249 623.309" stroke="#020202" stroke-width="2.31817" stroke-linecap="round" stroke-linejoin="round" fill="none" transform="matrix(1.00004 0 0 1 323.846 0)"/><path d="M198.713 952.581C202.144 945.627 223.1 904.734 266.682 895.554 279.664 892.865 291.254 893.607 300.249 895.183" stroke="#020202" stroke-width="2.31817" stroke-linecap="round" stroke-linejoin="round" fill="none" transform="matrix(1.00004 0 0 1 323.846 0)"/><path d="M424.317 1125.79 143.634 1125.79" stroke="#020202" stroke-width="2.31817" stroke-linecap="round" stroke-linejoin="round" fill="none" transform="matrix(1.00004 0 0 1 323.846 0)"/><path d="M295.427 291.533 295.427 109.139" stroke="#020202" stroke-width="2.31817" stroke-linecap="round" stroke-linejoin="round" fill="none" transform="matrix(1.00004 0 0 1 323.846 0)"/><path d="M272.246 291.533 272.246 109.139" stroke="#020202" stroke-width="2.31817" stroke-linecap="round" stroke-linejoin="round" fill="none" transform="matrix(1.00004 0 0 1 323.846 0)"/><path d="M279.107 82.1558C279.107 95.1376 289.585 105.616 302.567 105.616 315.549 105.616 326.027 95.1376 326.027 82.1558L326.027 82.1558C326.027 69.1741 315.549 58.696 302.567 58.696 289.585 58.696 279.107 69.1741 279.107 82.1558L279.107 82.1558Z" fill="#020202" transform="matrix(1.00004 0 0 1 323.846 0)"/><path d="M279.107 82.1558C279.107 95.1376 289.585 105.616 302.567 105.616 315.549 105.616 326.027 95.1376 326.027 82.1558L326.027 82.1558C326.027 69.1741 315.549 58.696 302.567 58.696 289.585 58.696 279.107 69.1741 279.107 82.1558L279.107 82.1558Z" stroke="#020202" stroke-width="2.31817" stroke-linecap="round" stroke-linejoin="round" fill="none" transform="matrix(1.00004 0 0 1 323.846 0)"/><path d="M174.048 291.533 453.433 291.533 453.433 1125.79 174.048 1125.79Z" stroke="#020202" stroke-width="2.31817" stroke-linecap="round" stroke-linejoin="round" fill="#FFFFFF" transform="matrix(1.00004 0 0 1 323.846 0)"/><path d="M389.73 291.533 260.006 291.533" stroke="#020202" stroke-width="2.31817" stroke-linecap="round" stroke-linejoin="round" fill="none" transform="matrix(1.00004 0 0 1 323.846 0)"/><path d="M452.135 847.707 174.048 847.707" stroke="#020202" stroke-width="2.31817" stroke-linecap="round" stroke-linejoin="round" fill="none" transform="matrix(1.00004 0 0 1 323.846 0)"/><path d="M419.496 291.533 389.73 291.533" stroke="#020202" stroke-width="2.31817" stroke-linecap="round" stroke-linejoin="round" fill="none" transform="matrix(1.00004 0 0 1 323.846 0)"/><path d="M174.048 291.533 452.135 291.533" stroke="#020202" stroke-width="2.31817" stroke-linecap="round" stroke-linejoin="round" fill="none" transform="matrix(1.00004 0 0 1 323.846 0)"/><path d="M452.135 291.533 452.135 569.62" stroke="#020202" stroke-width="2.31817" stroke-linecap="round" stroke-linejoin="round" fill="none" transform="matrix(1.00004 0 0 1 323.846 0)"/><path d="M174.048 291.533 174.048 569.62" stroke="#020202" stroke-width="2.31817" stroke-linecap="round" stroke-linejoin="round" fill="none" transform="matrix(1.00004 0 0 1 323.846 0)"/><path d="M174.048 569.62 452.135 569.62" stroke="#020202" stroke-width="2.31817" stroke-linecap="round" stroke-linejoin="round" fill="none" transform="matrix(1.00004 0 0 1 323.846 0)"/><path d="M452.135 569.62 452.135 847.707" stroke="#020202" stroke-width="2.31817" stroke-linecap="round" stroke-linejoin="round" fill="none" transform="matrix(1.00004 0 0 1 323.846 0)"/><path d="M174.048 569.62 174.048 847.707" stroke="#020202" stroke-width="2.31817" stroke-linecap="round" stroke-linejoin="round" fill="none" transform="matrix(1.00004 0 0 1 323.846 0)"/><path d="M452.135 847.707 452.135 1125.79" stroke="#020202" stroke-width="2.31817" stroke-linecap="round" stroke-linejoin="round" fill="none" transform="matrix(1.00004 0 0 1 323.846 0)"/><path d="M174.048 847.707 174.048 1125.79" stroke="#020202" stroke-width="2.31817" stroke-linecap="round" stroke-linejoin="round" fill="none" transform="matrix(1.00004 0 0 1 323.846 0)"/><path d="M434.981 985.036C434.981 1052.38 380.388 1106.97 313.045 1106.97 245.702 1106.97 191.11 1052.38 191.11 985.036 191.11 917.692 245.702 863.1 313.045 863.1 380.388 863.1 434.981 917.692 434.981 985.036Z" stroke="#020202" stroke-width="2.31817" stroke-linecap="round" stroke-linejoin="round" fill="none" transform="matrix(1.00004 0 0 1 323.846 0)"/><path d="M424.317 985.036C424.317 1046.49 374.499 1096.31 313.045 1096.31 251.591 1096.31 201.773 1046.49 201.773 985.036 201.773 923.582 251.591 873.764 313.045 873.764 374.499 873.764 424.317 923.582 424.317 985.036Z" stroke="#020202" stroke-width="2.31817" stroke-linecap="round" stroke-linejoin="round" fill="none" transform="matrix(1.00004 0 0 1 323.846 0)"/><path d="M434.981 706.949C434.981 774.292 380.389 828.884 313.045 828.884 245.702 828.884 191.11 774.292 191.11 706.949 191.11 639.605 245.702 585.013 313.045 585.013 380.389 585.013 434.981 639.605 434.981 706.949Z" stroke="#020202" stroke-width="2.31817" stroke-linecap="round" stroke-linejoin="round" fill="none" transform="matrix(0.160233 -0.987079 0.987121 0.160226 -111.061 902.694)"/><path d="M424.317 706.948C424.317 768.402 374.499 818.22 313.045 818.22 251.591 818.22 201.773 768.402 201.773 706.948 201.773 645.494 251.591 595.676 313.045 595.676 374.499 595.676 424.317 645.494 424.317 706.948Z" stroke="#020202" stroke-width="2.31817" stroke-linecap="round" stroke-linejoin="round" fill="#FFFFFF" transform="matrix(1.00004 0 0 1 323.846 0)"/><path d="M434.981 428.861C434.981 496.204 380.388 550.797 313.045 550.797 245.702 550.797 191.11 496.204 191.11 428.861 191.11 361.518 245.702 306.925 313.045 306.925 380.388 306.925 434.981 361.518 434.981 428.861Z" stroke="#020202" stroke-width="2.31817" stroke-linecap="round" stroke-linejoin="round" fill="none" transform="matrix(1.00004 0 0 1 323.846 0)"/><path d="M424.317 428.861C424.317 490.315 374.499 540.133 313.045 540.133 251.591 540.133 201.773 490.315 201.773 428.861 201.773 367.407 251.591 317.589 313.045 317.589 374.499 317.589 424.317 367.407 424.317 428.861Z" stroke="#020202" stroke-width="2.31817" stroke-linecap="round" stroke-linejoin="round" fill="#ED1C24" transform="matrix(1.00004 0 0 1 323.846 0)"/><path d="M227.737 398.447C231.168 391.492 252.124 350.6 295.705 341.42 308.687 338.731 320.278 339.472 329.272 341.049" stroke="#020202" stroke-width="2.31817" stroke-linecap="round" stroke-linejoin="round" fill="none" transform="matrix(1.00004 0 0 1 323.846 0)"/><path d="M227.737 680.707C231.168 673.752 252.124 632.86 295.705 623.68 308.687 620.991 320.278 621.732 329.272 623.309" stroke="#020202" stroke-width="2.31817" stroke-linecap="round" stroke-linejoin="round" fill="none" transform="matrix(1.00004 0 0 1 323.846 0)"/><path d="M227.737 952.581C231.168 945.627 252.124 904.734 295.705 895.554 308.687 892.865 320.278 893.607 329.272 895.183" stroke="#020202" stroke-width="2.31817" stroke-linecap="round" stroke-linejoin="round" fill="none" transform="matrix(1.00004 0 0 1 323.846 0)"/><path d="M453.341 1125.79 172.75 1125.79" stroke="#020202" stroke-width="2.31817" stroke-linecap="round" stroke-linejoin="round" fill="none" transform="matrix(1.00004 0 0 1 323.846 0)"/><path d="M355.236 86.6067C433.775 87.3485 508.513 85.2158 579.171 81.0431" stroke="#020202" stroke-width="2.31817" stroke-linecap="round" stroke-linejoin="round" fill="none" transform="matrix(1.00004 0 0 1 323.846 0)"/><path d="M1.11272 67.505C92.1703 76.8704 190.368 83.5467 294.778 85.7722 298.858 85.7722 302.845 85.9576 306.925 86.0504" stroke="#020202" stroke-width="2.31817" stroke-linecap="round" stroke-linejoin="round" fill="none" transform="matrix(1.00004 0 0 1 323.846 0)"/><path d="M233.393 83.6395C248.415 78.354 265.662 69.7305 284.115 55.1724 308.873 35.0507 318.238 18.3599 335.763 7.60359 356.534-5.65633 370.721 2.7818 370.165 22.3471 370.536 32.2689 366.363 41.3561 364.787 48.867 360.892 69.2668 376.47 88.8322 457.143 85.5867" stroke="#020202" stroke-width="2.31817" stroke-linecap="round" stroke-linejoin="round" fill="none" transform="matrix(1.00004 0 0 1 323.846 0)"/><path d="M324.543 291.533 324.543 109.139" stroke="#020202" stroke-width="2.31817" stroke-linecap="round" stroke-linejoin="round" fill="none" transform="matrix(1.00004 0 0 1 323.846 0)"/><path d="M301.362 291.533 301.362 109.139" stroke="#020202" stroke-width="2.31817" stroke-linecap="round" stroke-linejoin="round" fill="none" transform="matrix(1.00004 0 0 1 323.846 0)"/><path d="M308.224 82.1558C308.224 95.1376 318.702 105.616 331.683 105.616 344.665 105.616 355.143 95.1376 355.143 82.1558L355.143 82.1558C355.143 69.1741 344.665 58.696 331.683 58.696 318.702 58.696 308.224 69.1741 308.224 82.1558L308.224 82.1558Z" stroke="#020202" stroke-width="2.31817" stroke-linecap="round" stroke-linejoin="round" fill="none" transform="matrix(1.00004 0 0 1 323.846 0)"/><path d="M487.557 121.565C487.557 141.23 471.615 157.172 451.95 157.172 432.285 157.172 416.343 141.23 416.343 121.565 416.343 101.899 432.285 85.9576 451.95 85.9576 471.615 85.9576 487.557 101.899 487.557 121.565Z" stroke="#020202" stroke-width="2.31817" stroke-linecap="round" stroke-linejoin="round" fill="none" transform="matrix(1.00004 0 0 1 323.846 0)"/><path d="M451.95 157.172C451.95 157.172 411.799 160.695 381.663 123.79 351.434 86.8849 351.898 98.6612 351.898 98.6612" stroke="#020202" stroke-width="2.31817" stroke-linecap="round" stroke-linejoin="round" fill="none" transform="matrix(1.00004 0 0 1 323.846 0)"/><path d="M301.362 109.139 300.898 85.9576" stroke="#020202" stroke-width="2.31817" stroke-miterlimit="10" fill="none" transform="matrix(1.00004 0 0 1 323.846 0)"/><path d="M324.543 109.139 324.543 103.298" stroke="#020202" stroke-width="2.31817" stroke-miterlimit="10" fill="none" transform="matrix(1.00004 0 0 1 323.846 0)"/><path d="M355.607 82.1558C355.607 95.3684 344.896 106.079 331.683 106.079 318.471 106.079 307.76 95.3684 307.76 82.1558 307.76 68.9433 318.471 58.2324 331.683 58.2324 344.896 58.2324 355.607 68.9433 355.607 82.1558Z" stroke="#020202" stroke-width="2.31817" stroke-linecap="round" stroke-linejoin="round" fill="#FFFFFF" transform="matrix(1.00004 0 0 1 323.846 0)"/></g></svg>